<?xml version="1.0" encoding="UTF-8"?>
<svg width="600px" height="300px" viewBox="0 0 600 300" version="1.1" xmlns="http://www.w3.org/2000/svg" xmlns:xlink="http://www.w3.org/1999/xlink">
    <title>redhill-tuts-logo-inverted-sm</title>
    <g id="redhill-tuts-logo-inverted-sm" stroke="none" stroke-width="1" fill="none" fill-rule="evenodd">
        <g id="Group-6" transform="translate(72.000000, -1.000000)" fill="#A0AEC0">
            <text id="Redhill" font-family="Impact" font-size="116" font-style="condensed" font-weight="700">
                <tspan x="76.2067145" y="159.591978">Redhill</tspan>
            </text>
            <path d="M89.4393701,80.7603552 C86.89095,85.6145563 86.3945207,93.135796 86.2067145,104.591978 C72.2711661,104.591978 60.4161626,95.6841071 56.0251665,83.2518272 L88.4389659,81.853195 Z M112.974549,55.0501777 C116.282499,60.0876983 118.206714,66.115126 118.206714,72.5919783 C105.947449,72.4004273 98.4237185,73.0917726 93.7857758,76.0112843 Z" id="Combined-Shape"></path>
            <polygon id="Triangle" transform="translate(75.500000, 54.250000) rotate(-25.000000) translate(-75.500000, -54.250000) " points="75.5 26 143 54.5 75.5 82.5 8 54.5"></polygon>
            <g id="Group-4" transform="translate(27.549038, 103.984283) rotate(-30.000000) translate(-27.549038, -103.984283) translate(10.049038, 79.484283)">
                <g id="Group-5" transform="translate(17.465126, 24.479292) rotate(29.000000) translate(-17.465126, -24.479292) translate(11.465126, 0.479292)">
                    <rect id="Rectangle" x="4" y="-1.13686838e-13" width="5" height="39"></rect>
                    <circle id="Oval" cx="6.0001523" cy="41.9825476" r="6"></circle>
                </g>
            </g>
        </g>
        <g id="Group-2" transform="translate(89.000000, 157.000000)">
            <g id="Group" fill="#A0AEC0" font-family="STHeitiSC-Medium, Heiti SC" font-size="108" font-weight="bold" letter-spacing="-2.57142857">
                <text id="Tut-ring">
                    <tspan x="0" y="93">Tut</tspan>
                    <tspan x="140.569714" y="93" letter-spacing="-0.857142857">   </tspan>
                    <tspan x="218.998286" y="93">ring</tspan>
                </text>
            </g>
            <g id="apple-shaded" transform="translate(149.000000, 18.000000)">
                <path d="M33.7599234,22.3281357 C23.3505143,13.2239548 14.0773436,13.2239548 5.94041114,22.3281357 C-2.19652129,31.4323166 -1.72003425,43.5467509 7.36987224,58.6714386 C11.4749913,64.6185245 15.176929,67.1515426 18.4756854,66.2704928 C23.42382,64.9489182 30.6810841,66.4907553 32.2205037,68.362986 C33.7599234,70.2352168 39.6976849,71.2263978 44.3159438,68.362986 C48.9342027,65.4995743 61.3595185,46.9975292 61.3595185,39.1782125 C61.3595185,31.3588958 57.7308864,22.4382669 48.7142857,19.7951176 C42.7032185,18.0330181 37.718431,18.8773574 33.7599234,22.3281357 Z" id="Path" fill="#A0AEC0"></path>
                <path d="M32.9369627,22.1988937 C22.8694809,18.0545384 15.4508437,20.3285027 10.6810512,29.0207867 C5.91125857,37.7130707 6.53500068,46.2948596 12.5522775,54.7661533 C16.7350187,61.9851688 20.2206363,65.5946766 23.0091304,65.5946766 C27.1918716,65.5946766 29.8573235,66.4808462 31.3971431,68.358136 C32.9369627,70.2354257 38.876267,71.229285 43.4957259,68.358136 C48.1151848,65.4869869 60.543729,46.934947 60.543729,39.0945015 C60.543729,31.254056 56.9141542,22.3093225 47.8952106,19.6590311 C41.8825815,17.8921701 36.8964989,18.738791 32.9369627,22.1988937 Z" id="Path" fill="#E10200" opacity="0"></path>
                <path d="M34.4384658,21.2105263 L37.5454765,19.4243767 C39.2025489,10.7168975 40.7560543,4.94912281 42.2059926,2.12105263 C43.6559309,-0.707017544 41.0667553,-0.707017544 34.4384658,2.12105263 L34.4384658,21.2105263 Z" id="Path-2" fill="#A0AEC0"></path>
                <path d="M31.9910974,17.9473684 C27.5124132,14.8255886 23.9882027,12.7928017 21.4184658,11.8490078 C17.5638606,10.4333169 14.1497816,9.67102182 9.96478163,3.02816467 C19.2158343,1.86657217 25.1996501,2.44736842 27.916229,4.77055343 C30.632808,7.09373844 31.9910974,11.4860101 31.9910974,17.9473684 Z" id="Path-3" fill="#A0AEC0"></path>
                <path d="M31.9910974,17.9473684 C29.2745185,11.1230124 21.9324132,6.14994453 9.96478163,3.02816467 C19.2158343,1.86657217 25.1996501,2.44736842 27.916229,4.77055343 C30.632808,7.09373844 31.9910974,11.4860101 31.9910974,17.9473684 Z" id="Path-3" fill="#A0AEC0"></path>
            </g>
        </g>
    </g>
</svg>