<?xml version="1.0" encoding="UTF-8"?>
<svg width="600px" height="300px" viewBox="0 0 600 300" version="1.1" xmlns="http://www.w3.org/2000/svg" xmlns:xlink="http://www.w3.org/1999/xlink">
    <title>redhill-tuts-logo-sm</title>
    <g id="redhill-tuts-logo-sm" stroke="none" stroke-width="1" fill="none" fill-rule="evenodd">
        <g id="Group-6" transform="translate(72.000000, -1.000000)" fill="#4A5568">
            <text id="Redhill" font-family="Impact" font-size="116" font-style="condensed" font-weight="700">
                <tspan x="76.2067145" y="159.591978">Redhill</tspan>
            </text>
            <path d="M89.4393701,80.7603552 C86.89095,85.6145563 86.3945207,93.135796 86.2067145,104.591978 C72.2711661,104.591978 60.4161626,95.6841071 56.0251665,83.2518272 L88.4389659,81.853195 Z M112.974549,55.0501777 C116.282499,60.0876983 118.206714,66.115126 118.206714,72.5919783 C105.947449,72.4004273 98.4237185,73.0917726 93.7857758,76.0112843 Z" id="Combined-Shape"></path>
            <polygon id="Triangle" transform="translate(75.500000, 54.250000) rotate(-25.000000) translate(-75.500000, -54.250000) " points="75.5 26 143 54.5 75.5 82.5 8 54.5"></polygon>
            <g id="Group-4" transform="translate(27.549038, 103.984283) rotate(-30.000000) translate(-27.549038, -103.984283) translate(10.049038, 79.484283)">
                <g id="Group-5" transform="translate(17.465126, 24.479292) rotate(29.000000) translate(-17.465126, -24.479292) translate(11.465126, 0.479292)">
                    <rect id="Rectangle" x="4" y="-1.13686838e-13" width="5" height="39"></rect>
                    <circle id="Oval" cx="6.0001523" cy="41.9825476" r="6"></circle>
                </g>
            </g>
        </g>
        <g id="Group" transform="translate(64.000000, 158.000000)" fill="#319795" font-family="STHeitiSC-Medium, Heiti SC" font-size="126" font-weight="bold" letter-spacing="-3">
            <text id="Tut-ring">
                <tspan x="0" y="108">Tut</tspan>
                <tspan x="163.998" y="108" letter-spacing="-1">   </tspan>
                <tspan x="255.498" y="108">ring</tspan>
            </text>
        </g>
        <g id="apple-shaded" transform="translate(235.000000, 171.000000)">
            <path d="M43.5611914,28.8104977 C30.1296959,17.0631674 18.1643143,17.0631674 7.66504663,28.8104977 C-2.83422102,40.5578279 -2.21939904,56.189356 9.50951257,75.7050821 C14.8064404,83.3787413 19.5831342,86.6471518 23.8395941,85.5103134 C30.2242839,83.8050557 39.5884956,85.794523 41.5748435,88.2103046 C43.5611914,90.6260862 51.2228192,91.9050294 57.181863,88.2103046 C63.1409068,84.5155797 79.1735722,60.6419731 79.1735722,50.5525323 C79.1735722,40.4630914 74.4914664,28.9526025 62.8571428,25.5420872 C55.100927,23.2684104 48.6689433,24.3578806 43.5611914,28.8104977 Z" id="Path" fill="#C30808"></path>
            <path d="M42.4993067,28.6437338 C29.5090076,23.2961786 19.9365726,26.2303261 13.7820015,37.4461764 C7.62743041,48.6620267 8.43225894,59.7353027 16.1964871,70.6660043 C21.5935725,79.980863 26.0911436,84.6382924 29.6892006,84.6382924 C35.086286,84.6382924 38.5255787,85.7817371 40.5124427,88.2040464 C42.4993067,90.6263558 50.1629252,91.9087549 56.1235173,88.2040464 C62.0841094,84.499338 78.1209406,60.5612219 78.1209406,50.4445181 C78.1209406,40.3278142 73.4376183,28.7862226 61.8002717,25.3664917 C54.0420407,23.0866711 47.6083857,24.1790851 42.4993067,28.6437338 Z" id="Path" fill="#E10200" opacity="0"></path>
            <path d="M44.4367301,27.3684211 L48.4457762,25.0637119 C50.5839341,13.8282548 52.5884571,6.38596491 54.4593453,2.73684211 C56.3302334,-0.912280702 52.9893617,-0.912280702 44.4367301,2.73684211 L44.4367301,27.3684211 Z" id="Path-2" fill="#63380F"></path>
            <path d="M41.2788354,23.1578947 C35.499888,19.1297917 30.9525196,16.5068409 27.6367301,15.2890423 C22.6630459,13.4623444 18.2577828,12.4787378 12.8577828,3.90730926 C24.7946249,2.40848022 32.5156775,3.15789474 36.0209406,6.15555282 C39.5262038,9.1532109 41.2788354,14.8206582 41.2788354,23.1578947 Z" id="Path-3" fill="#809B34"></path>
            <path d="M41.2788354,23.1578947 C37.7735722,14.3522741 28.299888,7.9354123 12.8577828,3.90730926 C24.7946249,2.40848022 32.5156775,3.15789474 36.0209406,6.15555282 C39.5262038,9.1532109 41.2788354,14.8206582 41.2788354,23.1578947 Z" id="Path-3" fill="#95B53B"></path>
            <path d="M57.4861486,27.3774324 C63.6626582,27.5182368 75.2974787,29.6303027 76.0156775,49.3429181 C73.2865221,64.8314016 62.6381098,77.3561848 57.4861486,82.2911466 C52.6023968,85.1072345 44.7339632,87.2571634 41.9730546,82.2911466 C40.1324489,78.9804687 41.9518859,72.3157273 47.4313655,62.2969224 C50.3659863,52.6122756 49.8393071,45.3843167 45.8513281,40.6130456 C39.8693596,33.4561389 50.7350799,27.0958236 57.4861486,27.3774324 Z" id="Path-4" fill="#EA0104"></path>
            <path d="M54.9630459,28.7634474 C54.9630459,28.7634474 71.7705332,24.0654854 73.9104143,49.4736842 C69.7065213,38.0207461 63.3907318,31.1173338 54.9630459,28.7634474 Z" id="Path-5" fill="#FDFE03"></path>
        </g>
    </g>
</svg>