<?xml version="1.0" encoding="UTF-8"?>
<svg width="384px" height="384px" viewBox="0 0 384 384" version="1.1" xmlns="http://www.w3.org/2000/svg" xmlns:xlink="http://www.w3.org/1999/xlink">
    <title>icon-384x384</title>
    <g id="icon-384x384" stroke="none" stroke-width="1" fill="none" fill-rule="evenodd">
        <path d="M285.580189,102.005988 C281.195755,102.005988 278.160377,105.389222 278.497642,109.787425 C278.834906,115.538922 270.740566,120.952096 260.285377,122.643713 C246.120283,98.2844311 224.198113,79 201.938679,79 C182.714623,79 173.608491,90.502994 173.608491,102.005988 C173.608491,132.45509 221.5,140.57485 251.516509,137.868263 C259.610849,154.784431 263.995283,175.083832 263.995283,194.706587 C263.995283,250.868263 234.316038,291.128743 191.820755,291.128743 C166.863208,291.128743 155.396226,272.859281 149.662736,263.386228 C171.247642,236.658683 184.063679,201.473054 184.063679,179.820359 C184.063679,148.694611 169.224057,142.943114 159.78066,142.943114 C134.485849,142.943114 122.681604,180.158683 122.681604,206.209581 C122.681604,227.185629 126.054245,245.793413 132.125,261.017964 C118.971698,275.227545 102.108491,287.068862 83.2216981,287.068862 C71.754717,287.068862 62.6485849,282.332335 55.9033019,275.565868 C47.134434,266.431138 42.4127358,251.206587 42.4127358,231.245509 C42.4127358,213.314371 46.7971698,192.676647 55.5660377,173.730539 C96.375,173.730539 145.615566,142.266467 145.615566,119.598802 C145.615566,107.080838 136.17217,98.2844311 123.356132,98.2844311 C93.3396226,98.2844311 65.3466981,125.011976 47.134434,158.505988 C34.6556604,155.461078 21.5023585,145.649701 21.5023585,127.718563 C21.5023585,126.365269 22.1768868,120.952096 22.1768868,119.937126 C22.1768868,115.877246 19.1415094,112.494012 15.0943396,112.494012 C7,112.494012 7,121.967066 7,127.718563 C7,150.047904 22.1768868,165.610778 40.7264151,171.362275 C32.6320755,190.98503 27.2358491,211.961078 27.2358491,231.245509 C27.2358491,274.212575 46.7971698,300.601796 83.2216981,300.601796 C102.783019,300.601796 122.007075,291.467066 139.207547,274.212575 C151.011792,295.188623 170.910377,305 191.820755,305 C242.073113,305 279.17217,260.002994 279.17217,194.706587 C279.17217,174.407186 274.450472,153.431138 266.693396,135.161677 C286.591981,130.086826 293,119.598802 293,109.787425 C293,105.389222 289.627358,102.005988 285.580189,102.005988 Z M189,102.487991 C189,97.7347161 193.412121,94 201.89697,94 C215.472727,94 231.763636,105.204148 245,124.896288 C209.363636,126.254366 189,114.031659 189,102.487991 L189,102.487991 Z M160,158 C166.666667,158 169,167.470588 169,180.323529 C169,196.220588 159.666667,226.323529 143.666667,250 C140,237.823529 138,221.926471 138,206.705882 C138,186.411765 147,158 160,158 L160,158 Z M123.965,112 C126.98,112 131,113.702899 131,119.152174 C131,130.391304 97.165,155.594203 64,159 C79.745,131.072464 103.195,112 123.965,112 L123.965,112 Z M322.49569,253.317416 C309.556034,253.317416 299,263.514045 299,277.789326 C299,294.783708 316.706897,306 336.116379,306 C361.99569,306 376.978448,290.365169 376.978448,269.292135 C376.978448,251.957865 365.741379,242.101124 349.056034,232.244382 C335.435345,224.087079 332.37069,220.008427 332.37069,213.550562 C332.37069,204.713483 338.5,197.91573 349.396552,197.91573 C358.25,197.91573 363.017241,205.393258 364.038793,208.792135 C364.719828,211.511236 368.125,213.210674 370.168103,213.210674 C374.594828,213.210674 378,209.811798 378,205.393258 C378,199.615169 370.168103,185 349.737069,185 C328.625,185 317.387931,199.615169 317.387931,213.550562 C317.387931,230.544944 331.349138,239.72191 342.24569,245.5 C357.568966,253.657303 361.655172,263.174157 361.655172,271.331461 C361.655172,286.626404 348.715517,293.764045 336.456897,293.764045 C324.198276,293.764045 314.323276,285.606742 314.323276,277.449438 C314.323276,272.691011 316.025862,267.592697 322.49569,267.592697 C324.87931,267.592697 325.900862,268.272472 327.943966,268.61236 C329.987069,268.952247 334.75431,267.932584 334.75431,262.154494 C334.75431,255.356742 328.625,253.317416 322.49569,253.317416 L322.49569,253.317416 Z" id="WS" fill="#0D888C"></path>
    </g>
</svg>