<?xml version="1.0" encoding="UTF-8"?>
<svg width="32px" height="32px" viewBox="0 0 32 32" version="1.1" xmlns="http://www.w3.org/2000/svg" xmlns:xlink="http://www.w3.org/1999/xlink">
    <title>icons8-facebook</title>
    <g id="icons" stroke="none" stroke-width="1" fill="none" fill-rule="evenodd">
        <g id="icons8-facebook" fill="#000000" fill-rule="nonzero">
            <path d="M29.0909091,0 L2.90909091,0 C1.30181818,0 0,1.30181818 0,2.90909091 L0,29.0909091 C0,30.6981818 1.30181818,32 2.90909091,32 L17.4545455,32 L17.4545455,18.9090909 L13.0909091,18.9090909 L13.0909091,14.5454545 L17.4545455,14.5454545 L17.4545455,12.2021818 C17.4545455,7.76581818 19.616,5.81818182 23.3032727,5.81818182 C25.0690909,5.81818182 26.0029091,5.94909091 26.4450909,6.00872727 L26.4450909,10.1818182 L23.9301818,10.1818182 C22.3650909,10.1818182 21.8181818,11.008 21.8181818,12.6807273 L21.8181818,14.5454545 L26.4058182,14.5454545 L25.7832727,18.9090909 L21.8181818,18.9090909 L21.8181818,32 L29.0909091,32 C30.6981818,32 32,30.6981818 32,29.0909091 L32,2.90909091 C32,1.30181818 30.6967273,0 29.0909091,0 Z" id="Path"></path>
        </g>
    </g>
</svg>