<?xml version="1.0" encoding="UTF-8"?>
<svg width="77px" height="86px" viewBox="0 0 77 86" version="1.1" xmlns="http://www.w3.org/2000/svg" xmlns:xlink="http://www.w3.org/1999/xlink">
    <title>apple-shaded</title>
    <g id="logos" stroke="none" stroke-width="1" fill="none" fill-rule="evenodd">
        <g id="apple-shaded" transform="translate(0.785106, 0.000000)">
            <path d="M41.3831319,27.3699728 C28.6232111,16.2100091 17.2560986,16.2100091 7.2817943,27.3699728 C-2.69250997,38.5299365 -2.10842909,53.3798882 9.03403694,71.919828 C14.0661184,79.2098043 18.6039775,82.3147942 22.6476144,81.2347977 C28.7130697,79.614803 37.6090708,81.5047968 39.4961013,83.7997893 C41.3831319,86.0947819 48.6616782,87.3097779 54.3227698,83.7997893 C59.9838614,80.2898008 75.2148936,57.6098745 75.2148936,48.0249056 C75.2148936,38.4399368 70.7668931,27.5049724 59.7142856,24.2649829 C52.3458807,22.1049899 46.2354961,23.1399865 41.3831319,27.3699728 Z" id="Path" fill="#C30808"></path>
            <path d="M40.3743414,27.2115471 C28.0335573,22.1313696 18.9397439,24.9188098 13.0929014,35.5738676 C7.24605889,46.2289254 8.01064599,56.7485376 15.3866627,67.1327041 C20.5138938,75.9818199 24.7865865,80.4063778 28.2047405,80.4063778 C33.3319717,80.4063778 36.5992997,81.4926502 38.4868206,83.7938441 C40.3743414,86.095038 47.6547789,87.3133171 53.3173415,83.7938441 C58.979904,80.2743711 74.2148936,57.5331608 74.2148936,47.9222922 C74.2148936,38.3114235 69.7657374,27.3469114 58.7102581,24.0981671 C51.3399387,21.9323375 45.2279664,22.9701309 40.3743414,27.2115471 Z" id="Path" fill="#E10200" opacity="0"></path>
            <path d="M42.2148936,26 L46.0234874,23.8105263 C48.0547374,13.1368421 49.9590342,6.06666667 51.736378,2.6 C53.5137217,-0.866666667 50.3398936,-0.866666667 42.2148936,2.6 L42.2148936,26 Z" id="Path-2" fill="#63380F"></path>
            <path d="M39.2148936,22 C33.7248936,18.1733021 29.4048936,15.6814988 26.2548936,14.5245902 C21.5298936,12.7892272 17.3448936,11.8548009 12.2148936,3.71194379 C23.5548936,2.28805621 30.8898936,3 34.2198936,5.84777518 C37.5498936,8.69555035 39.2148936,14.0796253 39.2148936,22 Z" id="Path-3" fill="#809B34"></path>
            <path d="M39.2148936,22 C35.8848936,13.6346604 26.8848936,7.53864169 12.2148936,3.71194379 C23.5548936,2.28805621 30.8898936,3 34.2198936,5.84777518 C37.5498936,8.69555035 39.2148936,14.0796253 39.2148936,22 Z" id="Path-3" fill="#95B53B"></path>
            <path d="M54.6118412,26.0085608 C60.4795253,26.142325 71.5326048,28.1487876 72.2148936,46.8757722 C69.622196,61.5898315 59.5062044,73.4883756 54.6118412,78.1765892 C49.9722769,80.8518727 42.497265,82.8943053 39.8744019,78.1765892 C38.1258265,75.0314452 39.8542916,68.6999409 45.0597972,59.1820763 C47.8476869,49.9816619 47.3473418,43.1151009 43.5587617,38.5823933 C37.8758916,31.783332 48.1983259,25.7410324 54.6118412,26.0085608 Z" id="Path-4" fill="#EA0104"></path>
            <path d="M52.2148936,27.325275 C52.2148936,27.325275 68.1820065,22.8622111 70.2148936,47 C66.2211952,36.1197088 60.2211952,29.5614671 52.2148936,27.325275 Z" id="Path-5" fill="#FDFE03"></path>
        </g>
    </g>
</svg>