<?xml version="1.0" encoding="UTF-8"?>
<svg width="32px" height="32px" viewBox="0 0 32 32" version="1.1" xmlns="http://www.w3.org/2000/svg" xmlns:xlink="http://www.w3.org/1999/xlink">
    <title>icons8-instagram</title>
    <g id="icons" stroke="none" stroke-width="1" fill="none" fill-rule="evenodd">
        <g id="icons8-instagram" fill="#000000" fill-rule="nonzero">
            <path d="M9.3307292,0 C4.18539587,0 0,4.1892708 0,9.33593733 L0,22.6692707 C0,27.814604 4.1892708,32 9.33593733,32 L22.6692707,32 C27.814604,32 32,27.8107293 32,22.6640627 L32,9.3307292 C32,4.18539587 27.8107293,0 22.6640627,0 L9.3307292,0 Z M25.3333333,5.33333333 C26.0693333,5.33333333 26.6666667,5.93066667 26.6666667,6.66666667 C26.6666667,7.40266667 26.0693333,8 25.3333333,8 C24.5973333,8 24,7.40266667 24,6.66666667 C24,5.93066667 24.5973333,5.33333333 25.3333333,5.33333333 Z M16,8 C20.412,8 24,11.588 24,16 C24,20.412 20.412,24 16,24 C11.588,24 8,20.412 8,16 C8,11.588 11.588,8 16,8 Z M16,10.6666667 C13.0544813,10.6666667 10.6666667,13.0544813 10.6666667,16 C10.6666667,18.9455187 13.0544813,21.3333333 16,21.3333333 C18.9455187,21.3333333 21.3333333,18.9455187 21.3333333,16 C21.3333333,13.0544813 18.9455187,10.6666667 16,10.6666667 Z" id="Shape"></path>
        </g>
    </g>
</svg>