<?xml version="1.0" encoding="UTF-8"?>
<svg width="150px" height="150px" viewBox="0 0 150 150" version="1.1" xmlns="http://www.w3.org/2000/svg" xmlns:xlink="http://www.w3.org/1999/xlink">
    <title>saving</title>
    <g id="saving" stroke="none" stroke-width="1" fill="none" fill-rule="evenodd">
        <path d="M75,127.683007 L65.1446287,137.224365 L58.7200555,125.104517 L46.3985985,131.133411 L44.0337053,117.621448 L30.4522728,119.547727 L32.3785518,105.966295 L18.866589,103.601401 L24.8954827,91.2799445 L12.7756345,84.8553713 L22.3169928,75 L12.7756345,65.1446287 L24.8954827,58.7200555 L18.866589,46.3985985 L32.3785518,44.0337053 L30.4522728,30.4522728 L44.0337053,32.3785518 L46.3985985,18.866589 L58.7200555,24.8954827 L65.1446287,12.7756345 L75,22.3169928 L84.8553713,12.7756345 L91.2799445,24.8954827 L103.601401,18.866589 L105.966295,32.3785518 L119.547727,30.4522728 L117.621448,44.0337053 L131.133411,46.3985985 L125.104517,58.7200555 L137.224365,65.1446287 L127.683007,75 L137.224365,84.8553713 L125.104517,91.2799445 L131.133411,103.601401 L117.621448,105.966295 L119.547727,119.547727 L105.966295,117.621448 L103.601401,131.133411 L91.2799445,125.104517 L84.8553713,137.224365 L75,127.683007 Z" id="Star" stroke="#E00D07" stroke-width="17" fill="#F03939" stroke-linecap="round" stroke-linejoin="round" stroke-dasharray="0,1"></path>
        <path d="M75,121.82934 L66.23967,130.310547 L60.5289382,119.537349 L49.576532,124.896365 L47.4744047,112.885732 L35.4020203,114.59798 L37.1142683,102.525595 L25.1036346,100.423468 L30.4626513,89.4710618 L19.6894529,83.76033 L28.1706603,75 L19.6894529,66.23967 L30.4626513,60.5289382 L25.1036346,49.576532 L37.1142683,47.4744047 L35.4020203,35.4020203 L47.4744047,37.1142683 L49.576532,25.1036346 L60.5289382,30.4626513 L66.23967,19.6894529 L75,28.1706603 L83.76033,19.6894529 L89.4710618,30.4626513 L100.423468,25.1036346 L102.525595,37.1142683 L114.59798,35.4020203 L112.885732,47.4744047 L124.896365,49.576532 L119.537349,60.5289382 L130.310547,66.23967 L121.82934,75 L130.310547,83.76033 L119.537349,89.4710618 L124.896365,100.423468 L112.885732,102.525595 L114.59798,114.59798 L102.525595,112.885732 L100.423468,124.896365 L89.4710618,119.537349 L83.76033,130.310547 L75,121.82934 Z" id="Star" stroke="#F33731" stroke-width="17" fill="#F03939" stroke-linecap="round" stroke-linejoin="round" stroke-dasharray="0,1"></path>
        <text id="15%-OFF" font-family="Impact" font-size="46" font-style="condensed" font-weight="700" line-spacing="54" letter-spacing="0.3" fill="#F7F7F7">
            <tspan x="39.9057617" y="66">15%</tspan>
            <tspan x="39" y="111.824219" font-size="53" letter-spacing="0.345652174">OFF</tspan>
        </text>
    </g>
</svg>